<svg xmlns="http://www.w3.org/2000/svg" viewBox="0 0 61.69 64"><defs><style>.cls-1{fill:#fff;}</style></defs><g id="レイヤー_2" data-name="レイヤー 2"><g id="_1" data-name="1"><path class="cls-1" d="M61.69,22.94V12.68a7.07,7.07,0,0,0-7.06-7.07h-3.5V13.4a3.68,3.68,0,0,1-3.68,3.68H41a3.68,3.68,0,0,1-3.68-3.68V5.63h0v0H24.4V13.4a3.69,3.69,0,0,1-3.69,3.68H14.25a3.69,3.69,0,0,1-3.7-3.68V5.61H7.06a7.07,7.07,0,0,0-7,7.07V22.94H0V56.27A7.74,7.74,0,0,0,7.73,64H54a7.74,7.74,0,0,0,7.73-7.73V22.94Zm-55.61.84h0v-1.3H55.6v1.3h0V56.27A1.65,1.65,0,0,1,54,57.92H7.73a1.65,1.65,0,0,1-1.65-1.65Z"/><polygon class="cls-1" points="20.36 28.81 20.36 28.79 20.36 28.79 20.36 28.77 12.83 28.77 12.83 36.3 20.36 36.3 20.36 28.81"/><rect class="cls-1" x="27.08" y="28.77" width="7.53" height="7.53"/><polygon class="cls-1" points="41.33 36.28 41.33 36.3 48.86 36.3 48.86 28.77 41.33 28.77 41.33 36.25 41.33 36.28 41.33 36.28"/><polygon class="cls-1" points="20.36 42.43 20.36 42.4 20.36 42.4 20.36 42.38 12.83 42.38 12.83 49.91 20.36 49.91 20.36 42.43"/><rect class="cls-1" x="27.08" y="42.38" width="7.53" height="7.53"/><polygon class="cls-1" points="41.33 49.91 48.86 49.91 48.86 42.38 41.33 42.38 41.33 49.87 41.33 49.89 41.33 49.89 41.33 49.91"/><path class="cls-1" d="M14.25,14.48h6.46A1.08,1.08,0,0,0,21.8,13.4v-10A3.37,3.37,0,0,0,18.43,0H16.52a3.37,3.37,0,0,0-3.36,3.35V13.4A1.08,1.08,0,0,0,14.25,14.48Z"/><path class="cls-1" d="M41,14.48h6.48a1.07,1.07,0,0,0,1.07-1.08v-10A3.36,3.36,0,0,0,45.17,0H43.25A3.36,3.36,0,0,0,39.9,3.35V13.4A1.07,1.07,0,0,0,41,14.48Z"/></g></g></svg>