<svg xmlns="http://www.w3.org/2000/svg" viewBox="0 0 64 63.99"><defs><style>.cls-1{fill:#fff;}</style></defs><g id="レイヤー_2" data-name="レイヤー 2"><g id="_1" data-name="1"><path class="cls-1" d="M61.09,46l-5.73-4.47a7.57,7.57,0,0,0-9.75.39A24.57,24.57,0,0,0,43,44.6a.66.66,0,0,1-.15.14l0,0c-2,1.26-11.95-7.63-13.91-9.67S17.37,22.56,19.39,21a24.53,24.53,0,0,0,2.7-2.64,7.57,7.57,0,0,0,.39-9.74L18,2.89a7.32,7.32,0,0,0-1.18-1.18l-.06-.05a6.86,6.86,0,0,0-.64-.46L16,1.15A7.57,7.57,0,0,0,12.93.06h0A7.54,7.54,0,0,0,10.2.22C7.85.81-.18,6.28,0,10.29a22.22,22.22,0,0,0,2,6.05,87.89,87.89,0,0,0,9.93,17.24,86.87,86.87,0,0,0,18.52,18.5A86.71,86.71,0,0,0,47.64,62a22.26,22.26,0,0,0,6.06,2c4,.18,9.47-7.84,10.07-10.2A7.55,7.55,0,0,0,61.09,46Z"/></g></g></svg>